TITLE "Putumayo Presents - Yoga Lounge"
REM GENRE "New Age"
REM DATE "2014"
REM DISCNUMBER 1
REM TOTALDISCS 1
REM DISCID B40E350C
REM REPLAYGAIN_ALBUM_GAIN -3.10 dB
REM REPLAYGAIN_ALBUM_PEAK 0.977478
REM COMPILATION TRUE
FILE "01 Dreamcatcher.flac" WAVE
  TRACK 01 AUDIO
    TITLE "Dreamcatcher"
    PERFORMER "Bahramji & Maneesh De Moor"
    ISRC US6QR1400036
    REM REPLAYGAIN_TRACK_GAIN -2.15 dB
    REM REPLAYGAIN_TRACK_PEAK 0.749939
    INDEX 01 00:00:00
  TRACK 02 AUDIO
    TITLE "Rama Bolo"
    PERFORMER "Jai Uttal & Ben Leinbach"
    ISRC US6QR1400045
    REM REPLAYGAIN_TRACK_GAIN -2.64 dB
    REM REPLAYGAIN_TRACK_PEAK 0.794312
    INDEX 00 05:44:65
FILE "02 Rama Bolo.flac" WAVE
    INDEX 01 00:00:00
  TRACK 03 AUDIO
    TITLE "Om Tare Tuttare"
    PERFORMER "Donna De Lory"
    ISRC US6QR1400046
    REM REPLAYGAIN_TRACK_GAIN -2.72 dB
    REM REPLAYGAIN_TRACK_PEAK 0.977478
    INDEX 00 05:21:33
FILE "03 Om Tare Tuttare.flac" WAVE
    INDEX 01 00:00:00
  TRACK 04 AUDIO
    TITLE "Nectar Drop"
    PERFORMER "DJ Drez"
    ISRC US6QR1400047
    REM REPLAYGAIN_TRACK_GAIN -2.80 dB
    REM REPLAYGAIN_TRACK_PEAK 0.867279
    INDEX 00 03:27:23
FILE "04 Nectar Drop.flac" WAVE
    INDEX 01 00:00:00
  TRACK 05 AUDIO
    TITLE "Sapano Se Pucho"
    PERFORMER "Niraj Chag With Japjit Kaur"
    ISRC GBVWC0800016
    REM REPLAYGAIN_TRACK_GAIN -4.68 dB
    REM REPLAYGAIN_TRACK_PEAK 0.688446
    INDEX 00 04:00:72
FILE "05 Sapano Se Pucho.flac" WAVE
    INDEX 01 00:00:00
  TRACK 06 AUDIO
    TITLE "Cosmic Flow"
    PERFORMER "Maneesh De Moor"
    ISRC US6QR1400049
    REM REPLAYGAIN_TRACK_GAIN -3.46 dB
    REM REPLAYGAIN_TRACK_PEAK 0.910156
    INDEX 00 03:50:72
FILE "06 Cosmic Flow.flac" WAVE
    INDEX 01 00:00:00
  TRACK 07 AUDIO
    TITLE "Mahamrtyunjaya Mantra"
    PERFORMER "Reema Datta, Ferenz Kallos"
    ISRC US6QR1400050
    REM REPLAYGAIN_TRACK_GAIN -0.81 dB
    REM REPLAYGAIN_TRACK_PEAK 0.902039
    INDEX 00 03:51:70
FILE "07 Mahamrtyunjaya Mantra.flac" WAVE
    INDEX 01 00:00:00
  TRACK 08 AUDIO
    TITLE "Evening Star (Early Mix)"
    PERFORMER "All India Radio"
    ISRC US6QR1400051
    REM REPLAYGAIN_TRACK_GAIN -0.14 dB
    REM REPLAYGAIN_TRACK_PEAK 0.794312
    INDEX 00 05:44:72
FILE "08 Evening Star (Early Mix).flac" WAVE
    INDEX 01 00:00:00
FILE "09 Peace Song (Putumayo Version).flac" WAVE
  TRACK 09 AUDIO
    TITLE "Peace Song (Putumayo Version)"
    PERFORMER "Sean Johnson & The Wild Lotus Band"
    ISRC USZ321400011
    REM REPLAYGAIN_TRACK_GAIN -4.53 dB
    REM REPLAYGAIN_TRACK_PEAK 0.725006
    INDEX 01 00:00:00
FILE "10 Prajna's Dream (Remix).flac" WAVE
  TRACK 10 AUDIO
    TITLE "Prajna's Dream (Remix)"
    PERFORMER "Stevin McNamara"
    ISRC US6QR1400052
    REM REPLAYGAIN_TRACK_GAIN -1.40 dB
    REM REPLAYGAIN_TRACK_PEAK 0.841370
    INDEX 01 00:00:00
FILE "11 Ra Ma Da Sa (Putumayo Version).flac" WAVE
  TRACK 11 AUDIO
    TITLE "Ra Ma Da Sa (Putumayo Version)"
    PERFORMER "Mirabai Ceiba"
    ISRC US6QR1400053
    REM REPLAYGAIN_TRACK_GAIN -2.85 dB
    REM REPLAYGAIN_TRACK_PEAK 0.725952
    INDEX 01 00:00:00
FILE "12 Shanti (Peace Out).flac" WAVE
  TRACK 12 AUDIO
    TITLE "Shanti (Peace Out)"
    PERFORMER "MC Yogi"
    ISRC US6QR1400054
    REM REPLAYGAIN_TRACK_GAIN -2.30 dB
    REM REPLAYGAIN_TRACK_PEAK 0.730804
    INDEX 01 00:00:00
